<?xml version="1.0" encoding="utf-8"?>
<!-- Improved hourglass favicon: falling sand aligned and centered -->
<svg xmlns="http://www.w3.org/2000/svg" viewBox="0 0 64 64" width="64" height="64" role="img" aria-label="Hourglass">
  <rect width="64" height="64" rx="8" fill="#0b1220"/>

  <!-- hourglass outline centered inside a 48x48 area -->
  <g transform="translate(8,8)" fill="none" stroke="#ffffff" stroke-width="2" stroke-linecap="round" stroke-linejoin="round">
    <path d="M4 0h40v4c0 6-8 10-18 18 10 8 18 12 18 18v4H4v-4c0-6 8-10 18-18C12 18 4 14 4 8V4z" />
  </g>

  <!-- sand (top pile, falling grain, bottom pile) aligned to center -->
  <g transform="translate(8,8)" fill="#f3c36b">
    <!-- top sand pile (symmetrical) -->
    <path d="M12 8 C20 14 28 14 36 8 C32 14 28 18 24 20 C20 18 16 14 12 8 Z" />
    <!-- falling grain centered -->
    <rect x="23" y="22" width="2" height="6" rx="1" />
    <!-- bottom pile centered -->
    <path d="M14 34 C22 28 34 28 40 34 C34 38 30 40 24 40 C18 40 14 38 14 34 Z" />
  </g>
</svg>